<?xml version="1.0" encoding="utf-8"?>
<!-- Generator: Adobe Illustrator 23.0.3, SVG Export Plug-In . SVG Version: 6.00 Build 0)  -->
<svg version="1.2" baseProfile="tiny" id="Layer_1" xmlns="http://www.w3.org/2000/svg" xmlns:xlink="http://www.w3.org/1999/xlink"
	 x="0px" y="0px" viewBox="0 0 450.6 202.4" xml:space="preserve">
<g>
	<path d="M213.3,101.5v24.7c0,7.8,6.3,14.1,14.1,14.1c7.6,0,13.9-6.3,14.1-14.1v-24.7c0-7.8-6.3-14.3-14.1-14.3
		C219.6,87.3,213.3,93.8,213.3,101.5z"/>
	<rect x="280.9" y="2.4" width="6.3" height="51.4"/>
	<path d="M10.5,2.4H0v51.4h10.3c16,0,28.6-8.5,28.6-26C38.9,10.7,26,2.4,10.5,2.4z M8.5,48H6.3V8.4h2.2c12.9,0,24,4.8,24,19.8
		C32.5,43.1,21.4,48,8.5,48z"/>
	<polygon points="85.1,28.6 105.4,28.6 105.4,22.7 85.1,22.7 85.1,8.3 105.9,8.3 105.9,2.4 78.7,2.4 78.7,53.9 106,53.9 106,48 
		85.1,48 	"/>
	<polygon points="224.2,53.8 230.5,53.8 230.5,8.3 242.5,8.3 242.5,2.4 212.2,2.4 212.2,8.3 224.2,8.3 	"/>
	<path d="M272.6,76.2L272.6,76.2c-8.7,0-14.7,6.1-22.3,10c-0.4,0.2-1.1,0.4-1.7,0.6v39.4c-0.2,11.7-9.7,21.2-21.2,21.2
		c-11.7,0-21.2-9.7-21.2-21.6V86.6l-1.7-0.6c-7.6-3.7-13.4-10-22.3-10c-14.9,0-25.8,15.6-20.6,29.9c2.2,6.3,6.7,9.7,11.9,13.2
		c6.3,4.1,12.1,9.3,16.9,15.2c6.9,8.9,11.7,19.5,13.9,30.5c1.1,5.2,1.7,12.3,2.2,17.1c1.1,11.3,8.7,20.6,21,20.6s19.9-9.3,21-20.6
		c0.4-5,1.1-11.9,2.2-17.1c2.2-11,6.9-21.6,13.9-30.5c4.8-6.1,10.4-11,16.9-15.2c5.2-3.5,9.7-6.9,11.9-13.2
		C298.2,91.8,287.3,76.2,272.6,76.2z"/>
	<polygon points="443.3,2.4 430.9,24.4 418.5,2.4 411.2,2.4 427.8,31.5 427.8,53.8 434.1,53.8 434.1,31.4 450.6,2.4 	"/>
	<polygon points="367.6,40.4 329.6,0 329.6,53.8 335.9,53.8 335.9,15.5 373.9,55.9 373.9,2.4 367.6,2.4 	"/>
	<path d="M176.5,39c0-8.6-5.4-12.6-12.6-15.5l-3.6-1.4c-3.2-1.3-7.1-3.4-7.1-7.4c0-4.5,4.5-7.3,8.5-7.3c3.8,0,6.2,1.6,8.1,4.8h0l5-3
		c-2.7-5-7.4-7.8-13-7.8c-7.6,0-14.9,5-14.9,13.3c0,7.1,5.2,10.5,11,13l3.5,1.5c4.3,1.9,8.7,4.3,8.7,9.8c0,5.4-3.9,10-9.3,10
		c-5.4,0-9.9-4.1-9.8-9.8l-6.3,1.4c1,8.3,7.4,14.4,15.6,14.4C169.4,55,176.5,48.3,176.5,39z"/>
</g>
</svg>
